<?xml version="1.0" encoding="UTF-8"?>
<svg width="900" height="600" xmlns="http://www.w3.org/2000/svg">
  <!-- Título -->
  <text x="450" y="30" font-family="Arial" font-size="18" text-anchor="middle" font-weight="bold">Mapa de Jornada do Usuário</text>
  
  <!-- Retângulo principal -->
  <rect x="50" y="50" width="800" height="520" rx="10" ry="10" fill="white" stroke="#333" stroke-width="2" />
  
  <!-- Cabeçalho para persona -->
  <rect x="50" y="50" width="800" height="40" rx="10" ry="10" fill="#34495e" stroke="#333" stroke-width="0" />
  <text x="100" y="75" font-family="Arial" font-size="14" fill="white" text-anchor="start" font-weight="bold">PERSONA: </text>
  <line x1="170" y1="75" x2="300" y2="75" stroke="white" stroke-width="1" stroke-dasharray="2,2" />
  
  <!-- Cabeçalho das fases -->
  <rect x="50" y="90" width="100" height="60" fill="#3498db" stroke="#333" stroke-width="1" />
  <rect x="150" y="90" width="116" height="60" fill="#3498db" stroke="#333" stroke-width="1" />
  <rect x="266" y="90" width="116" height="60" fill="#3498db" stroke="#333" stroke-width="1" />
  <rect x="382" y="90" width="116" height="60" fill="#3498db" stroke="#333" stroke-width="1" />
  <rect x="498" y="90" width="116" height="60" fill="#3498db" stroke="#333" stroke-width="1" />
  <rect x="614" y="90" width="116" height="60" fill="#3498db" stroke="#333" stroke-width="1" />
  <rect x="730" y="90" width="120" height="60" fill="#3498db" stroke="#333" stroke-width="1" />
  
  <text x="100" y="125" font-family="Arial" font-size="14" fill="white" text-anchor="middle" font-weight="bold">FASES</text>
  <text x="208" y="125" font-family="Arial" font-size="14" fill="white" text-anchor="middle" font-weight="bold">DESCOBERTA</text>
  <text x="324" y="125" font-family="Arial" font-size="14" fill="white" text-anchor="middle" font-weight="bold">CONSIDERAÇÃO</text>
  <text x="440" y="125" font-family="Arial" font-size="14" fill="white" text-anchor="middle" font-weight="bold">DECISÃO</text>
  <text x="556" y="125" font-family="Arial" font-size="14" fill="white" text-anchor="middle" font-weight="bold">ONBOARDING</text>
  <text x="672" y="125" font-family="Arial" font-size="14" fill="white" text-anchor="middle" font-weight="bold">USO CONTÍNUO</text>
  <text x="790" y="125" font-family="Arial" font-size="14" fill="white" text-anchor="middle" font-weight="bold">FIDELIZAÇÃO</text>
  
  <!-- Linhas para etapas -->
  <rect x="50" y="150" width="100" height="60" fill="#f2f2f2" stroke="#333" stroke-width="1" />
  <rect x="150" y="150" width="116" height="60" fill="#f2f2f2" stroke="#333" stroke-width="1" />
  <rect x="266" y="150" width="116" height="60" fill="#f2f2f2" stroke="#333" stroke-width="1" />
  <rect x="382" y="150" width="116" height="60" fill="#f2f2f2" stroke="#333" stroke-width="1" />
  <rect x="498" y="150" width="116" height="60" fill="#f2f2f2" stroke="#333" stroke-width="1" />
  <rect x="614" y="150" width="116" height="60" fill="#f2f2f2" stroke="#333" stroke-width="1" />
  <rect x="730" y="150" width="120" height="60" fill="#f2f2f2" stroke="#333" stroke-width="1" />
  
  <text x="100" y="185" font-family="Arial" font-size="14" fill="#333" text-anchor="middle" font-weight="bold">ETAPAS</text>
  
  <!-- Linhas para ações -->
  <rect x="50" y="210" width="100" height="60" fill="#ebf5fb" stroke="#333" stroke-width="1" />
  <rect x="150" y="210" width="116" height="60" fill="#ebf5fb" stroke="#333" stroke-width="1" />
  <rect x="266" y="210" width="116" height="60" fill="#ebf5fb" stroke="#333" stroke-width="1" />
  <rect x="382" y="210" width="116" height="60" fill="#ebf5fb" stroke="#333" stroke-width="1" />
  <rect x="498" y="210" width="116" height="60" fill="#ebf5fb" stroke="#333" stroke-width="1" />
  <rect x="614" y="210" width="116" height="60" fill="#ebf5fb" stroke="#333" stroke-width="1" />
  <rect x="730" y="210" width="120" height="60" fill="#ebf5fb" stroke="#333" stroke-width="1" />
  
  <text x="100" y="245" font-family="Arial" font-size="14" fill="#333" text-anchor="middle" font-weight="bold">AÇÕES</text>
  
  <!-- Linhas para pensamentos -->
  <rect x="50" y="270" width="100" height="60" fill="#f2f2f2" stroke="#333" stroke-width="1" />
  <rect x="150" y="270" width="116" height="60" fill="#f2f2f2" stroke="#333" stroke-width="1" />
  <rect x="266" y="270" width="116" height="60" fill="#f2f2f2" stroke="#333" stroke-width="1" />
  <rect x="382" y="270" width="116" height="60" fill="#f2f2f2" stroke="#333" stroke-width="1" />
  <rect x="498" y="270" width="116" height="60" fill="#f2f2f2" stroke="#333" stroke-width="1" />
  <rect x="614" y="270" width="116" height="60" fill="#f2f2f2" stroke="#333" stroke-width="1" />
  <rect x="730" y="270" width="120" height="60" fill="#f2f2f2" stroke="#333" stroke-width="1" />
  
  <text x="100" y="305" font-family="Arial" font-size="14" fill="#333" text-anchor="middle" font-weight="bold">PENSAMENTOS</text>
  
  <!-- Linhas para sentimentos -->
  <rect x="50" y="330" width="100" height="60" fill="#fef9e7" stroke="#333" stroke-width="1" />
  <rect x="150" y="330" width="116" height="60" fill="#fef9e7" stroke="#333" stroke-width="1" />
  <rect x="266" y="330" width="116" height="60" fill="#fef9e7" stroke="#333" stroke-width="1" />
  <rect x="382" y="330" width="116" height="60" fill="#fef9e7" stroke="#333" stroke-width="1" />
  <rect x="498" y="330" width="116" height="60" fill="#fef9e7" stroke="#333" stroke-width="1" />
  <rect x="614" y="330" width="116" height="60" fill="#fef9e7" stroke="#333" stroke-width="1" />
  <rect x="730" y="330" width="120" height="60" fill="#fef9e7" stroke="#333" stroke-width="1" />
  
  <text x="100" y="355" font-family="Arial" font-size="14" fill="#333" text-anchor="middle" font-weight="bold">SENTIMENTOS</text>
  <text x="208" y="365" font-family="Arial" font-size="14" fill="#333" text-anchor="middle">😊 😐 ☹️</text>
  <text x="324" y="365" font-family="Arial" font-size="14" fill="#333" text-anchor="middle">😊 😐 ☹️</text>
  <text x="440" y="365" font-family="Arial" font-size="14" fill="#333" text-anchor="middle">😊 😐 ☹️</text>
  <text x="556" y="365" font-family="Arial" font-size="14" fill="#333" text-anchor="middle">😊 😐 ☹️</text>
  <text x="672" y="365" font-family="Arial" font-size="14" fill="#333" text-anchor="middle">😊 😐 ☹️</text>
  <text x="790" y="365" font-family="Arial" font-size="14" fill="#333" text-anchor="middle">😊 😐 ☹️</text>
  
  <!-- Linhas para pontos de contato -->
  <rect x="50" y="390" width="100" height="60" fill="#e8f8f5" stroke="#333" stroke-width="1" />
  <rect x="150" y="390" width="116" height="60" fill="#e8f8f5" stroke="#333" stroke-width="1" />
  <rect x="266" y="390" width="116" height="60" fill="#e8f8f5" stroke="#333" stroke-width="1" />
  <rect x="382" y="390" width="116" height="60" fill="#e8f8f5" stroke="#333" stroke-width="1" />
  <rect x="498" y="390" width="116" height="60" fill="#e8f8f5" stroke="#333" stroke-width="1" />
  <rect x="614" y="390" width="116" height="60" fill="#e8f8f5" stroke="#333" stroke-width="1" />
  <rect x="730" y="390" width="120" height="60" fill="#e8f8f5" stroke="#333" stroke-width="1" />
  
  <text x="100" y="420" font-family="Arial" font-size="14" fill="#333" text-anchor="middle" font-weight="bold">PONTOS DE</text>
  <text x="100" y="440" font-family="Arial" font-size="14" fill="#333" text-anchor="middle" font-weight="bold">CONTATO</text>
  
  <!-- Linhas para pontos de dor -->
  <rect x="50" y="450" width="100" height="60" fill="#fbe5e1" stroke="#333" stroke-width="1" />
  <rect x="150" y="450" width="116" height="60" fill="#fbe5e1" stroke="#333" stroke-width="1" />
  <rect x="266" y="450" width="116" height="60" fill="#fbe5e1" stroke="#333" stroke-width="1" />
  <rect x="382" y="450" width="116" height="60" fill="#fbe5e1" stroke="#333" stroke-width="1" />
  <rect x="498" y="450" width="116" height="60" fill="#fbe5e1" stroke="#333" stroke-width="1" />
  <rect x="614" y="450" width="116" height="60" fill="#fbe5e1" stroke="#333" stroke-width="1" />
  <rect x="730" y="450" width="120" height="60" fill="#fbe5e1" stroke="#333" stroke-width="1" />
  
  <text x="100" y="480" font-family="Arial" font-size="14" fill="#333" text-anchor="middle" font-weight="bold">PONTOS DE DOR</text>
  
  <!-- Linhas para oportunidades -->
  <rect x="50" y="510" width="100" height="60" fill="#f5eef8" stroke="#333" stroke-width="1" />
  <rect x="150" y="510" width="116" height="60" fill="#f5eef8" stroke="#333" stroke-width="1" />
  <rect x="266" y="510" width="116" height="60" fill="#f5eef8" stroke="#333" stroke-width="1" />
  <rect x="382" y="510" width="116" height="60" fill="#f5eef8" stroke="#333" stroke-width="1" />
  <rect x="498" y="510" width="116" height="60" fill="#f5eef8" stroke="#333" stroke-width="1" />
  <rect x="614" y="510" width="116" height="60" fill="#f5eef8" stroke="#333" stroke-width="1" />
  <rect x="730" y="510" width="120" height="60" fill="#f5eef8" stroke="#333" stroke-width="1" />
  
  <text x="100" y="540" font-family="Arial" font-size="14" fill="#333" text-anchor="middle" font-weight="bold">OPORTUNIDADES</text>
</svg>
